<?xml version="1.0" standalone="no"?>
<!DOCTYPE svg PUBLIC "-//W3C//DTD SVG 20010904//EN"
 "http://www.w3.org/TR/2001/REC-SVG-20010904/DTD/svg10.dtd">
<svg version="1.0" xmlns="http://www.w3.org/2000/svg"
 width="1000.000000pt" height="371.000000pt" viewBox="0 0 1000.000000 371.000000"
 preserveAspectRatio="xMidYMid meet">

<g transform="translate(0.000000,371.000000) scale(0.100000,-0.100000)"
fill="#000000" stroke="none">
<path d="M3162 3069 c17 -217 -13 -531 -73 -771 -41 -163 -108 -344 -185 -497
l-62 -124 304 304 c167 167 304 301 304 297 0 -4 -118 -187 -261 -408 -144
-220 -259 -403 -256 -407 4 -3 173 28 377 68 361 72 371 74 378 99 12 44 8
430 -6 510 -20 112 -68 290 -102 375 -91 228 -201 403 -387 614 l-38 43 7
-103z"/>
<path d="M6525 3135 c-377 -59 -710 -254 -922 -540 -113 -152 -205 -372 -238
-570 -22 -128 -22 -339 0 -470 30 -189 116 -399 226 -555 110 -157 307 -323
492 -417 94 -47 282 -109 392 -128 386 -68 831 13 1167 212 l78 47 0 578 0
578 -520 0 -520 0 0 -200 0 -200 305 0 305 0 0 -258 0 -259 -77 -36 c-247
-115 -603 -116 -850 -2 -281 130 -472 388 -523 708 -18 109 -8 339 19 439 58
220 182 403 351 518 317 215 792 209 1185 -15 43 -25 79 -44 80 -42 1 1 47 82
103 179 l101 178 -80 45 c-280 157 -543 226 -859 224 -74 -1 -171 -7 -215 -14z"/>
<path d="M2862 2927 l-191 -192 29 -515 c17 -283 31 -522 33 -530 4 -21 149
276 192 394 46 126 99 331 120 471 20 123 33 523 18 549 -7 13 -45 -21 -201
-177z"/>
<path d="M4570 1790 l0 -1320 225 0 225 0 0 1320 0 1320 -225 0 -225 0 0
-1320z"/>
<path d="M7880 2905 l0 -205 420 0 420 0 0 -1115 0 -1115 223 2 222 3 3 1113
2 1112 415 0 415 0 0 205 0 205 -1060 0 -1060 0 0 -205z"/>
<path d="M2307 2372 l-287 -287 243 -251 c133 -138 244 -249 246 -248 4 4 90
1067 87 1071 -1 1 -131 -127 -289 -285z"/>
<path d="M1770 1835 c-107 -107 -192 -196 -190 -198 6 -5 734 -176 737 -173 3
3 -334 546 -346 558 -3 4 -94 -80 -201 -187z"/>
<path d="M1004 1069 l-489 -489 50 -51 50 -51 145 5 c457 18 917 181 1309 465
58 42 100 77 95 79 -5 1 -286 -55 -624 -126 -543 -113 -636 -131 -619 -118 2
2 297 108 654 237 358 128 654 236 658 240 4 4 -63 34 -150 67 -87 34 -255 99
-374 146 l-217 84 -488 -488z"/>
<path d="M3340 1385 c-173 -64 -323 -119 -334 -123 -16 -7 112 -63 500 -219
14 -5 83 160 122 292 34 118 44 165 34 165 -4 -1 -149 -52 -322 -115z"/>
<path d="M3056 834 c80 -126 149 -229 154 -229 28 0 251 309 234 325 -5 4
-121 34 -259 65 -137 32 -256 60 -263 62 -6 3 53 -98 134 -223z"/>
<path d="M2181 914 c-137 -115 -476 -303 -685 -379 -200 -73 -542 -144 -701
-145 l-60 -1 30 -25 c54 -45 208 -136 314 -187 235 -111 436 -157 714 -165
264 -6 395 11 631 85 l119 37 -6 116 c-8 150 -37 618 -40 648 -2 20 -58 -31
-352 -315 -192 -186 -346 -331 -343 -322 3 9 96 159 205 335 110 175 202 325
207 332 11 19 0 14 -33 -14z"/>
<path d="M2730 903 c-1 -10 -13 -171 -29 -358 -15 -187 -27 -342 -25 -344 5
-5 132 66 214 122 82 55 230 176 230 188 0 7 -380 409 -387 409 -1 0 -3 -8 -3
-17z"/>
<path d="M9562 829 c-120 -59 -134 -233 -27 -315 74 -56 201 -40 254 34 53 75
49 170 -12 239 -57 65 -137 81 -215 42z m156 -29 c46 -28 72 -76 72 -133 0
-93 -50 -149 -139 -155 -56 -4 -60 -3 -100 33 -65 59 -75 142 -25 213 42 60
130 79 192 42z"/>
<path d="M9585 748 c-3 -8 -5 -50 -3 -94 3 -66 6 -79 21 -82 14 -3 17 4 17 32
0 46 18 46 48 1 12 -19 29 -35 37 -35 20 0 19 6 -6 41 -19 28 -20 31 -5 48 20
22 21 65 1 81 -24 20 -103 26 -110 8z m84 -32 c17 -20 3 -46 -25 -46 -20 0
-24 5 -24 30 0 23 5 30 19 30 10 0 24 -6 30 -14z"/>
</g>
</svg>
