<?xml version="1.0" standalone="no"?>
<!DOCTYPE svg PUBLIC "-//W3C//DTD SVG 20010904//EN"
 "http://www.w3.org/TR/2001/REC-SVG-20010904/DTD/svg10.dtd">
<svg version="1.0" xmlns="http://www.w3.org/2000/svg"
 width="900.000000pt" height="500.000000pt" viewBox="0 0 900.000000 500.000000"
 preserveAspectRatio="xMidYMid meet">

<g transform="translate(0.000000,500.000000) scale(0.100000,-0.100000)"
fill="#000000" stroke="none">
<path d="M5580 4300 l0 -270 275 0 275 0 0 270 0 270 -275 0 -275 0 0 -270z"/>
<path d="M6240 4300 l0 -270 270 0 270 0 0 270 0 270 -270 0 -270 0 0 -270z"/>
<path d="M7550 4300 l0 -270 270 0 270 0 0 270 0 270 -270 0 -270 0 0 -270z"/>
<path d="M1295 4549 c-365 -47 -672 -264 -792 -559 -59 -148 -74 -365 -33
-495 55 -174 164 -316 324 -425 150 -100 293 -159 656 -270 445 -135 514 -158
587 -192 112 -52 183 -159 183 -274 0 -151 -179 -306 -429 -371 -88 -23 -109
-24 -251 -20 -217 7 -369 48 -533 141 -142 81 -303 233 -373 353 l-25 41 -207
-135 c-114 -74 -209 -136 -211 -138 -15 -15 139 -215 254 -330 212 -212 469
-349 782 -417 133 -29 432 -32 570 -6 295 56 551 188 753 389 l87 85 70 -67
c200 -190 443 -321 718 -385 110 -26 137 -28 320 -29 155 0 223 4 300 19 396
74 756 311 992 653 31 46 55 84 52 87 -2 2 -101 63 -219 135 -188 115 -216
130 -225 115 -5 -9 -36 -52 -67 -94 -253 -341 -708 -489 -1113 -363 -591 185
-891 834 -650 1405 95 224 304 437 530 538 465 209 1031 31 1294 -406 l36 -62
217 132 c120 72 217 135 218 140 0 17 -128 200 -193 276 -121 140 -310 286
-482 369 -114 56 -299 116 -420 136 -115 19 -351 22 -465 6 -463 -68 -866
-337 -1110 -742 -98 -163 -186 -415 -206 -587 -3 -34 -10 -62 -15 -62 -4 0
-45 15 -91 33 -109 44 -179 67 -568 182 -179 53 -357 112 -396 130 -129 59
-195 140 -195 240 0 97 50 170 164 239 152 91 433 90 673 -3 80 -31 246 -131
296 -179 15 -14 29 -24 31 -21 2 2 27 47 55 99 29 52 84 138 122 190 39 52 77
105 86 117 15 22 15 24 -7 43 -102 87 -367 237 -489 277 -189 62 -420 85 -605
62z"/>
<path d="M5580 3645 l0 -275 273 2 272 3 3 273 2 272 -275 0 -275 0 0 -275z"/>
<path d="M6240 3648 l0 -268 270 0 270 0 0 268 0 267 -270 0 -270 0 0 -267z"/>
<path d="M5580 2990 l0 -270 275 0 275 0 0 270 0 270 -275 0 -275 0 0 -270z"/>
<path d="M6240 2990 l0 -270 270 0 270 0 0 270 0 270 -270 0 -270 0 0 -270z"/>
<path d="M8200 2990 l0 -270 270 0 270 0 0 270 0 270 -270 0 -270 0 0 -270z"/>
<path d="M3770 2965 l0 -255 770 0 770 0 0 255 0 255 -770 0 -770 0 0 -255z"/>
<path d="M5582 2338 l3 -273 270 0 270 0 3 273 2 272 -275 0 -275 0 2 -272z"/>
<path d="M6240 2340 l0 -270 270 0 270 0 0 270 0 270 -270 0 -270 0 0 -270z"/>
<path d="M6890 2340 c0 -233 2 -270 15 -271 8 0 125 -1 260 -1 135 0 250 1
255 1 6 1 10 98 10 271 l0 270 -270 0 -270 0 0 -270z"/>
<path d="M5580 1680 l0 -270 275 0 275 0 0 270 0 270 -275 0 -275 0 0 -270z"/>
<path d="M6240 1680 l0 -270 270 0 270 0 0 270 0 270 -270 0 -270 0 0 -270z"/>
<path d="M8200 1680 l0 -270 270 0 270 0 0 270 0 270 -270 0 -270 0 0 -270z"/>
<path d="M378 1087 c-105 -30 -162 -97 -161 -188 1 -92 62 -154 180 -184 167
-42 204 -66 180 -115 -8 -15 -29 -31 -55 -40 -54 -19 -136 -3 -205 40 -27 16
-50 30 -52 30 -2 0 -19 -22 -39 -50 l-36 -49 33 -24 c50 -38 87 -54 155 -67
129 -26 255 6 310 78 37 48 44 160 13 209 -28 45 -92 78 -206 109 -55 14 -108
33 -117 42 -24 20 -23 55 2 77 36 33 158 18 222 -27 33 -23 34 -22 75 35 31
42 31 45 15 60 -63 57 -222 89 -314 64z"/>
<path d="M1029 1087 c-100 -28 -182 -97 -222 -186 -29 -66 -29 -207 0 -273 30
-65 92 -129 160 -164 52 -26 68 -29 153 -29 84 0 101 3 146 27 47 25 124 99
124 120 0 4 -25 20 -55 35 l-54 27 -22 -28 c-25 -32 -91 -65 -129 -66 -133 -1
-231 128 -201 265 21 92 108 165 198 165 38 0 92 -27 124 -62 l30 -32 55 27
c30 15 54 31 54 35 0 22 -77 94 -126 118 -65 32 -165 41 -235 21z"/>
<path d="M4873 1090 c-95 -20 -180 -87 -224 -176 -32 -65 -39 -190 -14 -264
54 -164 244 -256 421 -205 48 14 70 28 119 77 l60 60 -58 30 -58 29 -39 -35
c-53 -48 -108 -63 -168 -47 -104 28 -157 105 -150 220 4 82 37 140 96 170 86
44 154 36 222 -25 l37 -34 57 25 c49 22 55 28 47 43 -16 31 -100 103 -138 118
-44 19 -154 26 -210 14z"/>
<path d="M5779 1087 c-100 -28 -182 -97 -223 -186 -29 -66 -29 -207 1 -273 32
-69 94 -131 166 -164 53 -25 74 -29 152 -29 78 0 98 4 150 28 33 16 75 42 93
60 l32 31 0 123 0 123 -155 0 -155 0 0 -60 0 -60 85 0 85 0 0 -40 c0 -35 -5
-43 -32 -60 -133 -81 -308 24 -308 186 0 112 98 214 208 214 33 0 93 -27 124
-57 24 -23 30 -25 55 -14 16 6 41 20 57 30 l28 19 -41 45 c-24 26 -64 54 -94
67 -63 28 -164 35 -228 17z"/>
<path d="M8469 1091 c-83 -17 -156 -82 -173 -152 -10 -45 9 -118 40 -151 40
-41 69 -55 182 -84 119 -31 142 -45 142 -84 0 -83 -167 -90 -276 -12 l-39 29
-38 -53 -37 -53 32 -24 c122 -91 320 -104 428 -27 45 32 70 88 70 157 0 107
-52 153 -225 199 -103 27 -119 35 -136 65 -7 13 -3 25 14 45 19 22 31 26 74
26 58 0 116 -16 155 -44 33 -23 34 -22 76 36 l33 46 -48 30 c-26 17 -63 35
-83 40 -51 14 -149 20 -191 11z"/>
<path d="M1480 765 l0 -325 70 0 70 0 -2 323 -3 322 -67 3 -68 3 0 -326z"/>
<path d="M1750 765 l0 -325 225 0 225 0 0 60 0 60 -160 0 -160 0 0 75 0 75
160 0 160 0 0 60 0 60 -160 0 -160 0 0 70 0 70 160 0 160 0 0 60 0 60 -225 0
-225 0 0 -325z"/>
<path d="M2320 765 l0 -326 68 3 67 3 5 203 5 203 150 -205 150 -205 68 -1 67
0 0 325 0 325 -70 0 -70 0 -2 -200 -3 -200 -148 200 -148 200 -70 0 -69 0 0
-325z"/>
<path d="M2970 1030 l0 -60 95 0 95 0 0 -265 0 -265 70 0 70 0 0 265 0 265 95
0 96 0 -3 58 -3 57 -257 3 -258 2 0 -60z"/>
<path d="M3560 765 l0 -325 70 0 70 0 0 325 0 325 -70 0 -70 0 0 -325z"/>
<path d="M3830 765 l0 -325 65 0 65 0 0 135 0 135 160 0 160 0 0 60 0 60 -160
0 -161 0 3 68 3 67 158 3 157 3 0 59 0 60 -225 0 -225 0 0 -325z"/>
<path d="M4380 765 l0 -325 70 0 70 0 0 325 0 325 -70 0 -70 0 0 -325z"/>
<path d="M6427 1078 c-13 -34 -202 -521 -222 -575 l-24 -63 78 0 78 0 20 53
20 52 140 3 140 3 20 -53 20 -53 77 -3 c42 -2 76 -1 76 0 0 2 -56 148 -123
323 l-124 320 -85 3 c-63 2 -87 -1 -91 -10z m144 -276 l46 -127 -95 -3 c-52
-1 -96 -1 -98 1 -2 2 17 63 42 136 26 72 50 129 53 125 3 -3 27 -63 52 -132z"/>
<path d="M6910 765 l0 -325 70 0 70 0 2 228 3 227 89 -228 90 -228 29 3 c29 3
32 9 114 218 46 118 87 218 91 222 4 4 7 -93 7 -215 l0 -222 68 -3 67 -3 0
326 0 326 -96 -3 -96 -3 -77 -197 c-42 -108 -79 -194 -82 -190 -3 4 -34 81
-69 172 -93 244 -73 220 -185 220 l-95 0 0 -325z"/>
<path d="M7750 765 l0 -325 225 0 225 0 0 60 0 60 -160 0 -160 0 0 75 0 75
160 0 160 0 0 60 0 60 -160 0 -160 0 0 70 0 70 160 0 160 0 0 60 0 60 -225 0
-225 0 0 -325z"/>
</g>
</svg>
